<svg width="26" height="17" viewBox="0 0 26 17" fill="none" xmlns="http://www.w3.org/2000/svg">
<path fill-rule="evenodd" clip-rule="evenodd" d="M25.2773 8.3C19.2432 -2.38158 6.06416 -2.38158 1.90735e-06 8.3C6.06416 18.9816 19.2432 18.9816 25.2773 8.3ZM12.6387 5.79406C11.2877 5.79406 10.207 6.95306 10.207 8.33133C10.207 9.74092 11.2877 10.8686 12.6387 10.8686C13.9896 10.8686 15.0703 9.74092 15.0703 8.33133C15.0703 6.95306 13.9896 5.79406 12.6387 5.79406ZM9.36642 2.63031C7.53517 3.78931 6.30432 5.88803 6.30432 8.26868C6.30432 10.7433 7.59521 12.8733 9.4865 14.001C6.75463 13.1866 4.26292 11.2758 2.49171 8.3C4.2329 5.35552 6.69459 3.47606 9.36642 2.63031ZM15.7908 14.001C17.6821 12.8733 18.973 10.7433 18.973 8.26868C18.973 5.88803 17.7422 3.78931 15.9109 2.63031C18.5827 3.47606 21.0444 5.35552 22.7856 8.3C21.0444 11.2758 18.5227 13.1866 15.7908 14.001Z" fill="white"/>
</svg>
