<svg width="204" height="52" viewBox="0 0 204 52" fill="none" xmlns="http://www.w3.org/2000/svg">
<path d="M39.9193 1V8.89604L32.1953 1H39.9193Z" fill="#6D00B0"/>
<path d="M1 30.3881H9.72102V21.5284H1V30.3881Z" fill="#6D00B0"/>
<path d="M41.3386 30.3881H50.0593V21.5284H41.3386V30.3881Z" fill="#6D00B0"/>
<path d="M11.14 51V43.104L18.864 51H11.14Z" fill="#6D00B0"/>
<path d="M19.8237 49.9375V42.0418H12.0998L19.8237 49.9375Z" fill="#6D00B0"/>
<path d="M31.2355 2.06247V9.95817H38.9595L31.2355 2.06247Z" fill="#6D00B0"/>
<path d="M32.1953 51L39.9193 43.104V51H32.1953Z" fill="#6D00B0"/>
<path d="M31.2355 49.9375L38.9595 42.0418H31.2355V49.9375Z" fill="#6D00B0"/>
<path d="M18.864 1L11.14 8.89604V1H18.864Z" fill="#6D00B0"/>
<path d="M19.8237 2.06247L12.0998 9.95817H19.8237V2.06247Z" fill="#6D00B0"/>
<path d="M1.03665 40.6976V32.8015L8.76061 40.6976H1.03665Z" fill="#6D00B0"/>
<path d="M9.72037 39.6351V31.7394H1.99641L9.72037 39.6351Z" fill="#6D00B0"/>
<path d="M50.0226 11.3024V19.1982L42.2987 11.3024H50.0226Z" fill="#6D00B0"/>
<path d="M41.3389 12.3646V20.2606H49.0629L41.3389 12.3646Z" fill="#6D00B0"/>
<path d="M42.2987 40.6976L50.0226 32.8015V40.6976H42.2987Z" fill="#6D00B0"/>
<path d="M41.3389 39.6351L49.0629 31.7394H41.3389V39.6351Z" fill="#6D00B0"/>
<path d="M8.76061 11.3024L1.03665 19.1982V11.3024H8.76061Z" fill="#6D00B0"/>
<path d="M9.72037 12.3646L1.99641 20.2606H9.72037V12.3646Z" fill="#6D00B0"/>
<path d="M12.0592 40.6976L19.7831 32.8015V40.6976H12.0592Z" fill="#6D00B0"/>
<path d="M31.2761 19.1982L39.0001 11.3024H31.2761V19.1982Z" fill="#6D00B0"/>
<path d="M31.2761 40.6976V32.8015L39.0001 40.6976H31.2761Z" fill="#6D00B0"/>
<path d="M19.7831 19.1982V11.3024H12.0592L19.7831 19.1982Z" fill="#6D00B0"/>
<path d="M18.864 31.7394L11.14 39.6351V31.7394H18.864Z" fill="#6D00B0"/>
<path d="M39.9193 12.3646L32.1953 20.2606H39.9193V12.3646Z" fill="#6D00B0"/>
<path d="M39.9193 31.7394V39.6351L32.1953 31.7394H39.9193Z" fill="#6D00B0"/>
<path d="M11.14 12.3646V20.2606H18.864L11.14 12.3646Z" fill="#6D00B0"/>
<path d="M29.8344 42.0438V51H21.078V42.0438H29.8344Z" fill="#6D00B0"/>
<path d="M21.2246 1V9.95617H29.9813V1H21.2246Z" fill="#6D00B0"/>
<path d="M9.73919 49.9459L1.78214 42.0418H9.73919V49.9459Z" fill="#6D00B0"/>
<path d="M49.2768 9.95818L41.3201 2.05413V9.95818H49.2768Z" fill="#6D00B0"/>
<path d="M41.3201 42.0418H49.2768L41.3201 49.9459V42.0418Z" fill="#6D00B0"/>
<path d="M1.78214 9.95818H9.73919V2.05413L1.78214 9.95818Z" fill="#6D00B0"/>
<path d="M73.1295 21.0459C73.7287 22.2784 74.2761 22.9351 75.533 22.9351H77.2234V22.3659C76.2435 22.258 75.6822 22.0139 74.9803 20.678C74.6817 20.1331 74.407 19.6135 74.1602 19.1466C73.8581 18.5749 73.5977 18.0823 73.3864 17.7193C72.7264 16.5497 71.9809 16.0969 71.0383 15.8077V15.7473L71.0794 15.7218C71.4278 15.5064 72.231 15.0098 72.9654 13.4952C73.9324 11.4784 74.3534 10.6981 75.2388 10.6981H75.6822C76.1012 10.6981 76.5043 10.449 76.5043 10.0997C76.5043 9.64932 76.1246 9.27702 75.4211 9.27702C74.533 9.30173 73.7703 9.85499 73.0463 11.44L72.9586 11.6457C72.2723 13.2554 71.898 14.1334 71.2819 14.7189C70.6391 15.3353 70.0927 15.5213 68.7074 15.546V12.0093C68.7074 10.3886 68.8896 10.2834 70.4153 10.1625V9.58621H65.3108V10.1625C66.8437 10.2834 67.0015 10.4089 67.0015 12.0093V20.3668C67.0015 22.1144 66.8437 22.2356 65.3108 22.3659V22.9351H70.4153V22.3659C68.8896 22.2356 68.7074 22.1144 68.7074 20.3668V16.2181C70.0756 16.2024 70.8587 16.3841 71.6808 18.112C72.1766 19.0503 72.6681 20.08 72.9798 20.7329L73.1295 21.0459Z" fill="#6D00B0"/>
<path d="M86.8557 14.5196C85.5314 14.6381 85.468 14.8047 85.468 15.954V20.8376C85.468 22.1151 85.5486 22.279 86.8557 22.4039V22.9351H82.5362V22.4039C83.7991 22.279 83.8849 22.1355 83.8849 20.8646V15.6064C83.8849 14.8625 83.8209 14.6992 83.1764 14.6992H82.113C81.4702 14.6992 81.3896 14.8625 81.3678 15.5213C81.2906 19.6299 80.2602 21.6647 79.6642 22.5475C79.3417 23.0363 79 23.2243 78.7586 23.2243C78.3747 23.2243 78.0762 23.1238 77.8725 23.0363V22.6684C78.5592 22.0974 79.2212 21.1087 79.5982 20.2035C80.065 19.1163 80.4642 17.5567 80.4642 15.7296C80.4642 14.9032 80.4071 14.6568 78.9382 14.5196V13.982H86.8557V14.5196Z" fill="#6D00B0"/>
<path d="M96.4998 15.7296C96.4998 14.7413 96.5989 14.5957 97.8835 14.4748V13.9813H94.7899V14.1249C94.7899 14.2304 94.7503 14.3713 94.6321 14.5797L90.9156 21.5414H90.8713C90.9552 19.9568 90.9552 18.9551 90.9552 18.2556V15.9133C90.9552 14.7189 91.0143 14.5957 92.2402 14.4748V13.9813H88.0984V14.4748C89.3437 14.5957 89.4269 14.7413 89.4269 15.9336V20.864C89.4269 22.0974 89.3437 22.2784 88.0984 22.4039V22.9351H91.1896V22.7896C91.1896 22.5876 91.253 22.3792 91.3778 22.1575L95.0088 15.2969H95.0488C94.9695 16.819 94.9695 17.5763 94.9695 18.1118V21.0279C94.9695 22.1355 94.851 22.2784 93.7833 22.4039V22.9351H97.864V22.4039C96.577 22.2784 96.4998 22.1575 96.4998 21.0059V15.7296Z" fill="#6D00B0"/>
<path d="M104.862 22.9351V22.4039C105.943 22.2784 106.044 22.1371 106.044 20.8376V18.542H102.149V20.8376C102.149 22.1799 102.246 22.2784 103.29 22.4039V22.9351H99.2331V22.4039C100.481 22.2784 100.56 22.1568 100.56 20.8376V15.8956C100.56 14.7413 100.501 14.5957 99.1942 14.4972V13.9813H103.273V14.4972C102.246 14.5957 102.149 14.7613 102.149 15.8956V17.76H106.044V15.8732C106.044 14.7613 105.988 14.5957 104.82 14.4972V13.9813H108.857V14.4972C107.736 14.5957 107.633 14.7189 107.633 15.8956V20.8376C107.633 22.1568 107.736 22.2784 108.919 22.4039V22.9351H104.862Z" fill="#6D00B0"/>
<path d="M118.686 15.7296C118.686 14.7413 118.785 14.5957 120.072 14.4748V13.9813H116.978V14.1249C116.978 14.2304 116.937 14.3713 116.818 14.5797L113.097 21.5414H113.062C113.139 19.957 113.139 18.9554 113.139 18.2559V15.9133C113.139 14.7189 113.2 14.5957 114.421 14.4748V13.9813H110.288V14.4748C111.529 14.5957 111.613 14.7413 111.613 15.9336V20.864C111.613 22.0974 111.529 22.2784 110.288 22.4039V22.9351H113.376V22.7896C113.376 22.5876 113.446 22.3792 113.56 22.1575L117.197 15.2969H117.239C117.158 16.8191 117.158 17.5764 117.158 18.112V21.0279C117.158 22.1355 117.037 22.2784 115.97 22.4039V22.9351H120.052V22.4039C118.761 22.2784 118.686 22.1575 118.686 21.0059V15.7296Z" fill="#6D00B0"/>
<path d="M129.175 22.9351C128.43 22.9351 127.767 22.8119 127.167 21.7648C126.674 20.8846 126.261 20.0386 125.982 19.4676L125.963 19.4279C125.579 18.6653 125.138 18.4793 124.272 18.4793V21.0459C124.272 22.0967 124.371 22.2784 125.579 22.4039V22.9351H121.42V22.4039C122.626 22.2784 122.724 22.0967 122.724 21.0459V15.8077C122.724 14.7413 122.645 14.6204 121.481 14.4972V13.9813H125.458V14.4972C124.371 14.6204 124.272 14.7413 124.272 15.8077V17.8656C124.855 17.8452 125.294 17.7423 125.796 17.2672C126.131 16.9107 126.522 16.3008 126.876 15.7495C126.992 15.5686 127.104 15.394 127.208 15.2368C127.587 14.6561 128.252 13.7596 129.096 13.7596C129.675 13.7596 129.997 14.0665 129.997 14.4521C129.997 14.8244 129.799 15.0728 129.274 15.0728H128.954C128.23 15.0728 127.804 15.6508 127.289 16.4311C126.923 17.0028 126.463 17.511 126.081 17.8028V17.8833C126.423 17.9888 127.009 18.2956 127.423 18.912C127.693 19.3025 127.916 19.6895 128.315 20.3809L128.594 20.864C129.274 21.9936 129.655 22.3411 130.473 22.4039V22.9351H129.175Z" fill="#6D00B0"/>
<path fill-rule="evenodd" clip-rule="evenodd" d="M136.767 22.7916C136.993 22.9956 137.414 23.1792 137.716 23.1792L139.422 22.1371L139.22 21.6036C139.021 21.7268 138.738 21.8483 138.497 21.8483C138.157 21.8483 137.797 21.5415 137.797 20.6156V16.8191C137.797 15.7296 137.596 14.9025 136.892 14.2932C136.451 13.9209 135.848 13.7349 135.243 13.7349C134.101 14.006 132.814 14.7613 132.25 15.1737C131.869 15.4628 131.626 15.6872 131.626 15.9964C131.626 16.4629 132.136 16.8572 132.491 16.8572C132.772 16.8572 132.976 16.7183 133.072 16.3841C133.259 15.7703 133.417 15.3172 133.68 15.0505C133.877 14.804 134.18 14.6561 134.563 14.6561C135.585 14.6561 136.251 15.4812 136.251 16.9824V17.33C135.806 17.6996 134.34 18.2556 133.131 18.6659C132.033 19.0556 131.507 19.6947 131.507 20.678C131.507 21.9688 132.491 23.1792 133.921 23.1792C134.425 23.1792 135.188 22.6431 135.9 22.1429C136.033 22.0496 136.164 21.9575 136.291 21.8703C136.39 22.2356 136.508 22.5248 136.767 22.7916ZM135.034 18.614C135.469 18.4117 135.976 18.1768 136.251 18.0295V21.2096C135.865 21.6036 135.164 21.9511 134.647 21.9511C134.017 21.9511 133.213 21.4607 133.213 20.3872C133.213 19.6292 133.655 19.2619 134.44 18.8923C134.587 18.8212 134.8 18.7223 135.034 18.614Z" fill="#6D00B0"/>
<path d="M75.4386 38.5202C75.3181 39.1994 74.9146 41.1313 74.7367 41.768H65.0506V41.1924C66.879 41.0508 67.0411 40.8805 67.0411 39.1994V31.0262C67.0411 29.1974 66.879 29.1139 65.3108 28.971V28.4171H74.2761C74.2761 28.8225 74.3401 29.8398 74.3994 30.7817L74.4366 31.3758L73.8492 31.4582C73.669 30.5938 73.4695 30.1433 73.2084 29.7126C72.9258 29.2602 72.3843 29.1139 70.9392 29.1139H69.4093C68.7863 29.1139 68.749 29.1771 68.749 29.7734V34.4577H70.6391C72.4632 34.4577 72.5623 34.2894 72.8053 32.915H73.3863V36.8354H72.8053C72.5448 35.3806 72.4061 35.2573 70.6566 35.2573H68.749V39.1372C68.749 40.1029 68.8698 40.5533 69.2297 40.8024C69.613 41.0692 70.3123 41.0692 71.3186 41.0692C72.8449 41.0692 73.4081 40.9026 73.8492 40.367C74.1913 39.9593 74.5746 39.2648 74.8555 38.4421L75.4386 38.5202Z" fill="#6D00B0"/>
<path d="M82.3335 40.5964C82.9341 41.6408 83.5984 41.7687 84.3419 41.7687H85.6489V41.2348C84.8265 41.1677 84.4406 40.8251 83.7631 39.6912L83.4702 39.1889C83.0762 38.5122 82.8518 38.127 82.594 37.7389C82.1734 37.1245 81.5877 36.8176 81.2503 36.7121V36.6317C81.6293 36.3452 82.0899 35.8273 82.454 35.258C82.9757 34.476 83.3969 33.8997 84.118 33.8997H84.4406C84.9688 33.8997 85.1639 33.6576 85.1639 33.2837C85.1639 32.891 84.8457 32.5865 84.261 32.5865C83.4187 32.5865 82.7545 33.492 82.3728 34.063C82.2567 34.2368 82.1321 34.4325 82.0034 34.6347C81.6605 35.1731 81.2883 35.7576 80.9693 36.0984C80.4629 36.5712 80.0247 36.6721 79.4367 36.6924V34.6393C79.4367 33.5725 79.5424 33.4513 80.625 33.3261V32.8102H76.6506V33.3261C77.8147 33.4513 77.8953 33.5725 77.8953 34.6393V39.8748C77.8953 40.9236 77.7946 41.1072 76.5908 41.2348V41.7687H80.7461V41.2348C79.5424 41.1072 79.4367 40.9236 79.4367 39.8748V37.3088C80.3008 37.3088 80.7461 37.4941 81.1271 38.2541C81.4081 38.8304 81.8314 39.6912 82.3335 40.5964Z" fill="#6D00B0"/>
<path fill-rule="evenodd" clip-rule="evenodd" d="M92.879 42.0125C92.5832 42.0125 92.1573 41.8271 91.9404 41.6188C91.6776 41.3563 91.5544 41.0672 91.458 40.6976C91.3281 40.7868 91.1943 40.8813 91.0587 40.977C90.3506 41.4771 89.5924 42.0125 89.0832 42.0125C87.6583 42.0125 86.6737 40.8004 86.6737 39.5069C86.6737 38.5209 87.1957 37.8868 88.3027 37.4941C89.5065 37.0821 90.9734 36.5262 91.4141 36.1562V35.8113C91.4141 34.3121 90.7521 33.492 89.7277 33.492C89.3444 33.492 89.0416 33.6356 88.8422 33.8793C88.5853 34.1438 88.4232 34.5966 88.2436 35.2173C88.1386 35.5445 87.9409 35.6837 87.6583 35.6837C87.299 35.6837 86.7969 35.2961 86.7969 34.8229C86.7969 34.5184 87.0379 34.2897 87.4195 34.0052C87.9808 33.5929 89.2655 32.8306 90.4101 32.5638C91.013 32.5638 91.6178 32.7498 92.0566 33.1197C92.7644 33.7358 92.9642 34.5568 92.9642 35.6457V39.4448C92.9642 40.3677 93.3214 40.6789 93.6658 40.6789C93.9094 40.6789 94.1877 40.554 94.3918 40.4281L94.5869 40.966L92.879 42.0125ZM90.2546 37.4172C90.0022 37.5348 89.7681 37.6439 89.6098 37.7212C88.8247 38.0908 88.3839 38.4581 88.3839 39.2204C88.3839 40.2872 89.1866 40.78 89.8092 40.78C90.3289 40.78 91.0305 40.4281 91.4141 40.0404V36.8604C91.152 36.9991 90.6769 37.2204 90.2546 37.4172Z" fill="#6D00B0"/>
<path d="M101.864 33.9778C102.042 34.3298 102.145 34.7829 102.268 35.4193L102.811 35.3609C102.79 34.476 102.768 33.5521 102.768 32.8102H95.096C95.0758 33.5521 95.0342 34.476 94.9335 35.3609L95.4773 35.4193C95.6572 34.7421 95.7758 34.3528 95.958 34.0052C96.1792 33.5725 96.5407 33.467 97.1436 33.467H98.1083V39.7914C98.1083 40.946 98.0076 41.1072 96.6414 41.2348V41.7687H101.158V41.2348C99.799 41.1072 99.6937 40.946 99.6937 39.7914V33.467H100.58C101.283 33.467 101.66 33.6106 101.864 33.9778Z" fill="#6D00B0"/>
<path fill-rule="evenodd" clip-rule="evenodd" d="M111.209 40.0404C109.946 41.6402 108.556 42.0125 107.936 42.0125C105.466 42.0125 104.015 39.9573 104.015 37.6377C104.015 36.244 104.519 34.9682 105.346 34.063C106.166 33.1401 107.254 32.5638 108.278 32.5638H108.298C109.964 32.5638 111.31 34.0834 111.31 35.6654C111.31 36.0757 111.229 36.244 110.849 36.3222C110.532 36.3849 107.997 36.5866 105.585 36.6714C105.605 39.4668 107.194 40.6161 108.598 40.6161C109.424 40.6161 110.168 40.2872 110.908 39.5857L111.209 40.0404ZM107.793 33.3254C106.89 33.3254 105.988 34.1889 105.686 35.8266C106.808 35.8266 107.936 35.8113 109.096 35.7709C109.46 35.7709 109.58 35.6654 109.58 35.3806C109.602 34.3121 108.922 33.3254 107.813 33.3254H107.793Z" fill="#6D00B0"/>
<path fill-rule="evenodd" clip-rule="evenodd" d="M118.042 32.5631C117.799 32.5631 117.421 32.666 117.059 32.8903L115.209 33.9615V32.3611C114.266 32.7291 113.139 33.0803 112.295 33.2219V33.7167C113.541 33.878 113.621 33.9234 113.621 35.2567V44.5397C113.621 45.891 113.444 46.0169 112.155 46.1374V46.6934H116.895V46.1374C115.349 45.9919 115.209 45.891 115.209 44.3334V41.6395C115.47 41.7831 115.996 41.9914 116.602 42.0138C119.208 41.5189 121.6 39.5259 121.6 36.429C121.6 34.434 120.274 32.5631 118.042 32.5631ZM117.101 41.0074C116.398 41.0074 115.65 40.6785 115.209 40.2281V34.6787C115.753 34.2503 116.573 33.7955 117.219 33.7955C118.667 33.7955 119.912 35.0306 119.912 37.2287C119.912 39.5259 118.789 41.0074 117.101 41.0074Z" fill="#6D00B0"/>
<path d="M132.528 33.3027C131.243 33.4302 131.147 33.5738 131.147 34.5578V39.8361C131.147 40.9834 131.221 41.1066 132.506 41.2341V41.768H128.428V41.2341C129.495 41.1066 129.619 40.9657 129.619 39.8538V36.9379C129.619 36.4046 129.619 35.645 129.695 34.1254H129.66L126.021 40.9834C125.9 41.2121 125.84 41.4134 125.84 41.6174V41.768H122.745V41.2341C123.99 41.1066 124.071 40.9229 124.071 39.6898V34.7618C124.071 33.5738 123.99 33.4302 122.745 33.3027V32.8095H126.882V33.3027C125.659 33.4302 125.602 33.5518 125.602 34.7435V37.0831C125.602 37.7853 125.602 38.787 125.52 40.367H125.562L129.274 33.4082C129.399 33.2015 129.434 33.0559 129.434 32.9551V32.8095H132.528V33.3027Z" fill="#6D00B0"/>
<path d="M139.504 41.2348V41.7687H143.562V41.2348C142.378 41.1072 142.278 40.984 142.278 39.6708V34.7224C142.278 33.5521 142.378 33.4289 143.503 33.3261V32.8102H139.462V33.3261C140.631 33.4289 140.69 33.5929 140.69 34.6997V36.5869H136.794V34.7224C136.794 33.5929 136.893 33.4289 137.917 33.3261V32.8102H133.839V33.3261C135.148 33.4289 135.208 33.5725 135.208 34.7224V39.6708C135.208 40.984 135.121 41.1072 133.878 41.2348V41.7687H137.941V41.2348C136.893 41.1072 136.794 41.0061 136.794 39.6708V37.3709H140.69V39.6708C140.69 40.966 140.592 41.1072 139.504 41.2348Z" fill="#6D00B0"/>
<path d="M154.718 33.3027C153.436 33.4302 153.33 33.5738 153.33 34.5578V39.8361C153.33 40.9834 153.411 41.1066 154.699 41.2341V41.768H150.618V41.2341C151.681 41.1066 151.804 40.9657 151.804 39.8538V36.9379C151.804 36.4046 151.804 35.645 151.885 34.1254H151.846L148.206 40.9834C148.086 41.2121 148.026 41.4134 148.026 41.6174V41.768H144.933V41.2341C146.18 41.1066 146.262 40.9229 146.262 39.6898V34.7618C146.262 33.5738 146.18 33.4302 144.933 33.3027V32.8095H149.075V33.3027C147.846 33.4302 147.783 33.5518 147.783 34.7435V37.0831C147.783 37.7853 147.783 38.787 147.706 40.367H147.746L151.463 33.4082C151.578 33.2015 151.622 33.0559 151.622 32.9551V32.8095H154.718V33.3027Z" fill="#6D00B0"/>
<path d="M161.691 41.2348V41.7687H165.745V41.2348C164.563 41.1072 164.462 40.984 164.462 39.6708V34.7224C164.462 33.5521 164.563 33.4289 165.688 33.3261V32.8102H161.652V33.3261C162.811 33.4289 162.873 33.5929 162.873 34.6997V36.5869H158.977V34.7224C158.977 33.5929 159.077 33.4289 160.103 33.3261V32.8102H156.023V33.3261C157.332 33.4289 157.389 33.5725 157.389 34.7224V39.6708C157.389 40.984 157.308 41.1072 156.065 41.2348V41.7687H160.123V41.2348C159.077 41.1072 158.977 41.0061 158.977 39.6708V37.3709H162.873V39.6708C162.873 40.966 162.774 41.1072 161.691 41.2348Z" fill="#6D00B0"/>
<path d="M174.526 39.9206C173.647 41.1059 172.318 42.0138 171.136 42.0138C168.604 42.0138 167.098 39.9356 167.098 37.7375C167.098 36.1552 167.782 34.7835 169.128 33.7364C170.174 32.9144 171.378 32.5625 172.121 32.5625H172.141C172.963 32.5625 173.627 32.8312 173.95 33.1184C174.211 33.3267 174.27 33.5104 174.27 33.7364C174.27 34.1692 173.829 34.6196 173.61 34.6196C173.487 34.6196 173.388 34.5572 173.226 34.3915C172.623 33.8196 171.917 33.5528 171.198 33.5528C169.871 33.5528 168.724 34.6807 168.724 36.8343C168.724 39.6715 170.613 40.6174 171.757 40.6174C172.623 40.6174 173.265 40.3683 174.191 39.4898L174.526 39.9206Z" fill="#6D00B0"/>
<path d="M181.304 40.5964C181.907 41.6408 182.569 41.7687 183.313 41.7687H184.615V41.2348C183.797 41.1677 183.416 40.8251 182.727 39.6912L182.42 39.1597C182.04 38.5011 181.821 38.1214 181.563 37.7389C181.142 37.1245 180.561 36.8176 180.217 36.7121V36.6317C180.598 36.3452 181.065 35.8273 181.424 35.258C181.942 34.476 182.366 33.8997 183.093 33.8997H183.416C183.937 33.8997 184.137 33.6576 184.137 33.2837C184.137 32.891 183.815 32.5865 183.234 32.5865C182.385 32.5865 181.725 33.492 181.344 34.063C181.239 34.2217 181.126 34.3987 181.009 34.5822C180.658 35.1347 180.268 35.7465 179.933 36.0984C179.432 36.5712 178.996 36.6721 178.408 36.6924V34.6393C178.408 33.5725 178.515 33.4513 179.596 33.3261V32.8102H175.619V33.3261C176.783 33.4513 176.862 33.5725 176.862 34.6393V39.8748C176.862 40.9236 176.763 41.1072 175.555 41.2348V41.7687H179.715V41.2348C178.515 41.1072 178.408 40.9236 178.408 39.8748V37.3088C179.274 37.3088 179.715 37.4941 180.098 38.2541C180.379 38.8304 180.804 39.6912 181.304 40.5964Z" fill="#6D00B0"/>
<path fill-rule="evenodd" clip-rule="evenodd" d="M191.854 42.0125C191.552 42.0125 191.133 41.8271 190.913 41.6188C190.65 41.3563 190.53 41.0672 190.429 40.6976C190.302 40.7851 190.171 40.8776 190.038 40.9714C189.328 41.4735 188.565 42.0125 188.059 42.0125C186.631 42.0125 185.646 40.8004 185.646 39.5069C185.646 38.5209 186.169 37.8868 187.272 37.4941C188.477 37.0821 189.944 36.5262 190.389 36.1562V35.8113C190.389 34.3121 189.725 33.492 188.703 33.492C188.322 33.492 188.015 33.6356 187.818 33.8793C187.555 34.1438 187.394 34.5966 187.215 35.2173C187.111 35.5445 186.915 35.6837 186.631 35.6837C186.272 35.6837 185.77 35.2961 185.77 34.8229C185.77 34.5184 186.009 34.2897 186.39 34.0052C186.953 33.5929 188.238 32.8306 189.383 32.5638C189.99 32.5638 190.587 32.7498 191.032 33.1197C191.735 33.7358 191.935 34.5568 191.935 35.6457V39.4448C191.935 40.3677 192.297 40.6789 192.637 40.6789C192.876 40.6789 193.159 40.554 193.356 40.4281L193.562 40.966L191.854 42.0125ZM189.24 37.4105C188.98 37.5307 188.74 37.6424 188.578 37.7212C187.798 38.0908 187.355 38.4581 187.355 39.2204C187.355 40.2872 188.162 40.78 188.782 40.78C189.297 40.78 190.006 40.4281 190.389 40.0404V36.8604C190.13 36.9975 189.66 37.2154 189.24 37.4105Z" fill="#6D00B0"/>
<path fill-rule="evenodd" clip-rule="evenodd" d="M198.924 41.2341V41.7674H203V41.2341C201.818 41.1466 201.698 41.0074 201.698 39.7146V34.8243C201.698 33.5084 201.818 33.4302 202.963 33.3247V32.8095H198.7C196.78 32.8095 195.392 33.5511 195.392 35.1939C195.392 36.429 196.216 37.2287 197.78 37.5158V37.5539C196.679 37.8207 196.193 38.5603 195.813 39.3202C195.735 39.4695 195.664 39.6095 195.598 39.7398C195.356 40.2197 195.178 40.57 194.988 40.7814C194.734 41.1015 194.314 41.1653 193.88 41.2314L193.862 41.2341V41.7674H195.326C196.03 41.7674 196.596 41.4134 197.038 40.4294C197.132 40.2277 197.22 40.0296 197.305 39.8388C197.547 39.2941 197.764 38.8078 198.001 38.4594C198.284 38.0471 198.744 37.8207 199.485 37.8207H200.15V39.6898C200.15 41.0074 200.046 41.1466 198.924 41.2341ZM199.13 33.4526C199.911 33.4526 200.15 33.5738 200.15 34.1067V37.1666H199.547C198.766 37.1666 198.238 37.0654 197.822 36.7542C197.361 36.4494 197.078 35.9943 197.078 35.3215C197.078 34.082 197.863 33.4526 199.13 33.4526Z" fill="#6D00B0"/>
<path d="M39.9193 1V8.89604L32.1953 1H39.9193Z" stroke="#2B2A29" stroke-width="0.0762" stroke-miterlimit="22.9256"/>
<path d="M1 30.3881H9.72102V21.5284H1V30.3881Z" stroke="#2B2A29" stroke-width="0.0762" stroke-miterlimit="22.9256"/>
<path d="M41.3386 30.3881H50.0593V21.5284H41.3386V30.3881Z" stroke="#2B2A29" stroke-width="0.0762" stroke-miterlimit="22.9256"/>
<path d="M11.14 51V43.104L18.864 51H11.14Z" stroke="#2B2A29" stroke-width="0.0762" stroke-miterlimit="22.9256"/>
<path d="M19.8237 49.9375V42.0418H12.0998L19.8237 49.9375Z" stroke="#2B2A29" stroke-width="0.0762" stroke-miterlimit="22.9256"/>
<path d="M31.2355 2.06247V9.95817H38.9595L31.2355 2.06247Z" stroke="#2B2A29" stroke-width="0.0762" stroke-miterlimit="22.9256"/>
<path d="M32.1953 51L39.9193 43.104V51H32.1953Z" stroke="#2B2A29" stroke-width="0.0762" stroke-miterlimit="22.9256"/>
<path d="M31.2355 49.9375L38.9595 42.0418H31.2355V49.9375Z" stroke="#2B2A29" stroke-width="0.0762" stroke-miterlimit="22.9256"/>
<path d="M18.864 1L11.14 8.89604V1H18.864Z" stroke="#2B2A29" stroke-width="0.0762" stroke-miterlimit="22.9256"/>
<path d="M19.8237 2.06247L12.0998 9.95817H19.8237V2.06247Z" stroke="#2B2A29" stroke-width="0.0762" stroke-miterlimit="22.9256"/>
<path d="M1.03665 40.6976V32.8015L8.76061 40.6976H1.03665Z" stroke="#2B2A29" stroke-width="0.0762" stroke-miterlimit="22.9256"/>
<path d="M9.72037 39.6351V31.7394H1.99641L9.72037 39.6351Z" stroke="#2B2A29" stroke-width="0.0762" stroke-miterlimit="22.9256"/>
<path d="M50.0226 11.3024V19.1982L42.2987 11.3024H50.0226Z" stroke="#2B2A29" stroke-width="0.0762" stroke-miterlimit="22.9256"/>
<path d="M41.3389 12.3646V20.2606H49.0629L41.3389 12.3646Z" stroke="#2B2A29" stroke-width="0.0762" stroke-miterlimit="22.9256"/>
<path d="M42.2987 40.6976L50.0226 32.8015V40.6976H42.2987Z" stroke="#2B2A29" stroke-width="0.0762" stroke-miterlimit="22.9256"/>
<path d="M41.3389 39.6351L49.0629 31.7394H41.3389V39.6351Z" stroke="#2B2A29" stroke-width="0.0762" stroke-miterlimit="22.9256"/>
<path d="M8.76061 11.3024L1.03665 19.1982V11.3024H8.76061Z" stroke="#2B2A29" stroke-width="0.0762" stroke-miterlimit="22.9256"/>
<path d="M9.72037 12.3646L1.99641 20.2606H9.72037V12.3646Z" stroke="#2B2A29" stroke-width="0.0762" stroke-miterlimit="22.9256"/>
<path d="M12.0592 40.6976L19.7831 32.8015V40.6976H12.0592Z" stroke="#2B2A29" stroke-width="0.0762" stroke-miterlimit="22.9256"/>
<path d="M31.2761 19.1982L39.0001 11.3024H31.2761V19.1982Z" stroke="#2B2A29" stroke-width="0.0762" stroke-miterlimit="22.9256"/>
<path d="M31.2761 40.6976V32.8015L39.0001 40.6976H31.2761Z" stroke="#2B2A29" stroke-width="0.0762" stroke-miterlimit="22.9256"/>
<path d="M19.7831 19.1982V11.3024H12.0592L19.7831 19.1982Z" stroke="#2B2A29" stroke-width="0.0762" stroke-miterlimit="22.9256"/>
<path d="M18.864 31.7394L11.14 39.6351V31.7394H18.864Z" stroke="#2B2A29" stroke-width="0.0762" stroke-miterlimit="22.9256"/>
<path d="M39.9193 12.3646L32.1953 20.2606H39.9193V12.3646Z" stroke="#2B2A29" stroke-width="0.0762" stroke-miterlimit="22.9256"/>
<path d="M39.9193 31.7394V39.6351L32.1953 31.7394H39.9193Z" stroke="#2B2A29" stroke-width="0.0762" stroke-miterlimit="22.9256"/>
<path d="M11.14 12.3646V20.2606H18.864L11.14 12.3646Z" stroke="#2B2A29" stroke-width="0.0762" stroke-miterlimit="22.9256"/>
<path d="M29.8344 42.0438V51H21.078V42.0438H29.8344Z" stroke="#2B2A29" stroke-width="0.0762" stroke-miterlimit="22.9256"/>
<path d="M21.2246 1V9.95617H29.9813V1H21.2246Z" stroke="#2B2A29" stroke-width="0.0762" stroke-miterlimit="22.9256"/>
<path d="M9.73919 49.9459L1.78214 42.0418H9.73919V49.9459Z" stroke="#2B2A29" stroke-width="0.0762" stroke-miterlimit="22.9256"/>
<path d="M49.2768 9.95818L41.3201 2.05413V9.95818H49.2768Z" stroke="#2B2A29" stroke-width="0.0762" stroke-miterlimit="22.9256"/>
<path d="M41.3201 42.0418H49.2768L41.3201 49.9459V42.0418Z" stroke="#2B2A29" stroke-width="0.0762" stroke-miterlimit="22.9256"/>
<path d="M1.78214 9.95818H9.73919V2.05413L1.78214 9.95818Z" stroke="#2B2A29" stroke-width="0.0762" stroke-miterlimit="22.9256"/>
<path d="M73.1295 21.0459C73.7287 22.2784 74.2761 22.9351 75.533 22.9351H77.2234V22.3659C76.2435 22.258 75.6822 22.0139 74.9803 20.678C74.6817 20.1331 74.407 19.6135 74.1602 19.1466C73.8581 18.5749 73.5977 18.0823 73.3864 17.7193C72.7264 16.5497 71.9809 16.0969 71.0383 15.8077V15.7473L71.0794 15.7218C71.4278 15.5064 72.231 15.0098 72.9654 13.4952C73.9324 11.4784 74.3534 10.6981 75.2388 10.6981H75.6822C76.1012 10.6981 76.5043 10.449 76.5043 10.0997C76.5043 9.64932 76.1246 9.27702 75.4211 9.27702C74.533 9.30173 73.7703 9.85499 73.0463 11.44L72.9586 11.6457C72.2723 13.2554 71.898 14.1334 71.2819 14.7189C70.6391 15.3353 70.0927 15.5213 68.7074 15.546V12.0093C68.7074 10.3886 68.8896 10.2834 70.4153 10.1625V9.58621H65.3108V10.1625C66.8437 10.2834 67.0015 10.4089 67.0015 12.0093V20.3668C67.0015 22.1144 66.8437 22.2356 65.3108 22.3659V22.9351H70.4153V22.3659C68.8896 22.2356 68.7074 22.1144 68.7074 20.3668V16.2181C70.0756 16.2024 70.8587 16.3841 71.6808 18.112C72.1766 19.0503 72.6681 20.08 72.9798 20.7329L73.1295 21.0459Z" stroke="#2B2A29" stroke-width="0.0762" stroke-miterlimit="22.9256"/>
<path d="M86.8557 14.5196C85.5314 14.6381 85.468 14.8047 85.468 15.954V20.8376C85.468 22.1151 85.5486 22.279 86.8557 22.4039V22.9351H82.5362V22.4039C83.7991 22.279 83.8849 22.1355 83.8849 20.8646V15.6064C83.8849 14.8625 83.8209 14.6992 83.1764 14.6992H82.113C81.4702 14.6992 81.3896 14.8625 81.3678 15.5213C81.2906 19.6299 80.2602 21.6647 79.6642 22.5475C79.3417 23.0363 79 23.2243 78.7586 23.2243C78.3747 23.2243 78.0762 23.1238 77.8725 23.0363V22.6684C78.5592 22.0974 79.2212 21.1087 79.5982 20.2035C80.065 19.1163 80.4642 17.5567 80.4642 15.7296C80.4642 14.9032 80.4071 14.6568 78.9382 14.5196V13.982H86.8557V14.5196Z" stroke="#2B2A29" stroke-width="0.0762" stroke-miterlimit="22.9256"/>
<path d="M96.4998 15.7296C96.4998 14.7413 96.5989 14.5957 97.8835 14.4748V13.9813H94.7899V14.1249C94.7899 14.2304 94.7503 14.3713 94.6321 14.5797L90.9156 21.5414H90.8713C90.9552 19.9568 90.9552 18.9551 90.9552 18.2556V15.9133C90.9552 14.7189 91.0143 14.5957 92.2402 14.4748V13.9813H88.0984V14.4748C89.3437 14.5957 89.4269 14.7413 89.4269 15.9336V20.864C89.4269 22.0974 89.3437 22.2784 88.0984 22.4039V22.9351H91.1896V22.7896C91.1896 22.5876 91.253 22.3792 91.3778 22.1575L95.0088 15.2969H95.0488C94.9695 16.819 94.9695 17.5763 94.9695 18.1118V21.0279C94.9695 22.1355 94.851 22.2784 93.7833 22.4039V22.9351H97.864V22.4039C96.577 22.2784 96.4998 22.1575 96.4998 21.0059V15.7296Z" stroke="#2B2A29" stroke-width="0.0762" stroke-miterlimit="22.9256"/>
<path d="M104.862 22.9351V22.4039C105.943 22.2784 106.044 22.1371 106.044 20.8376V18.542H102.149V20.8376C102.149 22.1799 102.246 22.2784 103.29 22.4039V22.9351H99.2331V22.4039C100.481 22.2784 100.56 22.1568 100.56 20.8376V15.8956C100.56 14.7413 100.501 14.5957 99.1942 14.4972V13.9813H103.273V14.4972C102.246 14.5957 102.149 14.7613 102.149 15.8956V17.76H106.044V15.8732C106.044 14.7613 105.988 14.5957 104.82 14.4972V13.9813H108.857V14.4972C107.736 14.5957 107.633 14.7189 107.633 15.8956V20.8376C107.633 22.1568 107.736 22.2784 108.919 22.4039V22.9351H104.862Z" stroke="#2B2A29" stroke-width="0.0762" stroke-miterlimit="22.9256"/>
<path d="M118.686 15.7296C118.686 14.7413 118.785 14.5957 120.072 14.4748V13.9813H116.978V14.1249C116.978 14.2304 116.937 14.3713 116.818 14.5797L113.097 21.5414H113.062C113.139 19.957 113.139 18.9554 113.139 18.2559V15.9133C113.139 14.7189 113.2 14.5957 114.421 14.4748V13.9813H110.288V14.4748C111.529 14.5957 111.613 14.7413 111.613 15.9336V20.864C111.613 22.0974 111.529 22.2784 110.288 22.4039V22.9351H113.376V22.7896C113.376 22.5876 113.446 22.3792 113.56 22.1575L117.197 15.2969H117.239C117.158 16.8191 117.158 17.5764 117.158 18.112V21.0279C117.158 22.1355 117.037 22.2784 115.97 22.4039V22.9351H120.052V22.4039C118.761 22.2784 118.686 22.1575 118.686 21.0059V15.7296Z" stroke="#2B2A29" stroke-width="0.0762" stroke-miterlimit="22.9256"/>
<path d="M129.175 22.9351C128.43 22.9351 127.767 22.8119 127.167 21.7648C126.674 20.8846 126.261 20.0386 125.982 19.4676L125.963 19.4279C125.579 18.6653 125.138 18.4793 124.272 18.4793V21.0459C124.272 22.0967 124.371 22.2784 125.579 22.4039V22.9351H121.42V22.4039C122.626 22.2784 122.724 22.0967 122.724 21.0459V15.8077C122.724 14.7413 122.645 14.6204 121.481 14.4972V13.9813H125.458V14.4972C124.371 14.6204 124.272 14.7413 124.272 15.8077V17.8656C124.855 17.8452 125.294 17.7423 125.796 17.2672C126.131 16.9107 126.522 16.3008 126.876 15.7495C126.992 15.5686 127.104 15.394 127.208 15.2368C127.587 14.6561 128.252 13.7596 129.096 13.7596C129.675 13.7596 129.997 14.0665 129.997 14.4521C129.997 14.8244 129.799 15.0728 129.274 15.0728H128.954C128.23 15.0728 127.804 15.6508 127.289 16.4311C126.923 17.0028 126.463 17.511 126.081 17.8028V17.8833C126.423 17.9888 127.009 18.2956 127.423 18.912C127.693 19.3025 127.916 19.6895 128.315 20.3809L128.594 20.864C129.274 21.9936 129.655 22.3411 130.473 22.4039V22.9351H129.175Z" stroke="#2B2A29" stroke-width="0.0762" stroke-miterlimit="22.9256"/>
<path fill-rule="evenodd" clip-rule="evenodd" d="M136.767 22.7916C136.993 22.9956 137.414 23.1792 137.716 23.1792L139.422 22.1371L139.22 21.6036C139.021 21.7268 138.738 21.8483 138.497 21.8483C138.157 21.8483 137.797 21.5415 137.797 20.6156V16.8191C137.797 15.7296 137.596 14.9025 136.892 14.2932C136.451 13.9209 135.848 13.7349 135.243 13.7349C134.101 14.006 132.814 14.7613 132.25 15.1737C131.869 15.4628 131.626 15.6872 131.626 15.9964C131.626 16.4629 132.136 16.8572 132.491 16.8572C132.772 16.8572 132.976 16.7183 133.072 16.3841C133.259 15.7703 133.417 15.3172 133.68 15.0505C133.877 14.804 134.18 14.6561 134.563 14.6561C135.585 14.6561 136.251 15.4812 136.251 16.9824V17.33C135.806 17.6996 134.34 18.2556 133.131 18.6659C132.033 19.0556 131.507 19.6947 131.507 20.678C131.507 21.9688 132.491 23.1792 133.921 23.1792C134.425 23.1792 135.188 22.6431 135.9 22.1429C136.033 22.0496 136.164 21.9575 136.291 21.8703C136.39 22.2356 136.508 22.5248 136.767 22.7916ZM135.034 18.614C135.469 18.4117 135.976 18.1768 136.251 18.0295V21.2096C135.865 21.6036 135.164 21.9511 134.647 21.9511C134.017 21.9511 133.213 21.4607 133.213 20.3872C133.213 19.6292 133.655 19.2619 134.44 18.8923C134.587 18.8212 134.8 18.7223 135.034 18.614Z" stroke="#2B2A29" stroke-width="0.0762" stroke-miterlimit="22.9256"/>
<path d="M75.4386 38.5202C75.3181 39.1994 74.9146 41.1313 74.7367 41.768H65.0506V41.1924C66.879 41.0508 67.0411 40.8805 67.0411 39.1994V31.0262C67.0411 29.1974 66.879 29.1139 65.3108 28.971V28.4171H74.2761C74.2761 28.8225 74.3401 29.8398 74.3994 30.7817L74.4366 31.3758L73.8492 31.4582C73.669 30.5938 73.4695 30.1433 73.2084 29.7126C72.9258 29.2602 72.3843 29.1139 70.9392 29.1139H69.4093C68.7863 29.1139 68.749 29.1771 68.749 29.7734V34.4577H70.6391C72.4632 34.4577 72.5623 34.2894 72.8053 32.915H73.3863V36.8354H72.8053C72.5448 35.3806 72.4061 35.2573 70.6566 35.2573H68.749V39.1372C68.749 40.1029 68.8698 40.5533 69.2297 40.8024C69.613 41.0692 70.3123 41.0692 71.3186 41.0692C72.8449 41.0692 73.4081 40.9026 73.8492 40.367C74.1913 39.9593 74.5746 39.2648 74.8555 38.4421L75.4386 38.5202Z" stroke="#2B2A29" stroke-width="0.0762" stroke-miterlimit="22.9256"/>
<path d="M82.3335 40.5964C82.9341 41.6408 83.5984 41.7687 84.3419 41.7687H85.6489V41.2348C84.8265 41.1677 84.4406 40.8251 83.7631 39.6912L83.4702 39.1889C83.0762 38.5122 82.8518 38.127 82.594 37.7389C82.1734 37.1245 81.5877 36.8176 81.2503 36.7121V36.6317C81.6293 36.3452 82.0899 35.8273 82.454 35.258C82.9757 34.476 83.3969 33.8997 84.118 33.8997H84.4406C84.9688 33.8997 85.1639 33.6576 85.1639 33.2837C85.1639 32.891 84.8457 32.5865 84.261 32.5865C83.4187 32.5865 82.7545 33.492 82.3728 34.063C82.2567 34.2368 82.1321 34.4325 82.0034 34.6347C81.6605 35.1731 81.2883 35.7576 80.9693 36.0984C80.4629 36.5712 80.0247 36.6721 79.4367 36.6924V34.6393C79.4367 33.5725 79.5424 33.4513 80.625 33.3261V32.8102H76.6506V33.3261C77.8147 33.4513 77.8953 33.5725 77.8953 34.6393V39.8748C77.8953 40.9236 77.7946 41.1072 76.5908 41.2348V41.7687H80.7461V41.2348C79.5424 41.1072 79.4367 40.9236 79.4367 39.8748V37.3088C80.3008 37.3088 80.7461 37.4941 81.1271 38.2541C81.4081 38.8304 81.8314 39.6912 82.3335 40.5964Z" stroke="#2B2A29" stroke-width="0.0762" stroke-miterlimit="22.9256"/>
<path fill-rule="evenodd" clip-rule="evenodd" d="M92.879 42.0125C92.5832 42.0125 92.1573 41.8271 91.9404 41.6188C91.6776 41.3563 91.5544 41.0672 91.458 40.6976C91.3281 40.7868 91.1943 40.8813 91.0587 40.977C90.3506 41.4771 89.5924 42.0125 89.0832 42.0125C87.6583 42.0125 86.6737 40.8004 86.6737 39.5069C86.6737 38.5209 87.1957 37.8868 88.3027 37.4941C89.5065 37.0821 90.9734 36.5262 91.4141 36.1562V35.8113C91.4141 34.3121 90.7521 33.492 89.7277 33.492C89.3444 33.492 89.0416 33.6356 88.8422 33.8793C88.5853 34.1438 88.4232 34.5966 88.2436 35.2173C88.1386 35.5445 87.9409 35.6837 87.6583 35.6837C87.299 35.6837 86.7969 35.2961 86.7969 34.8229C86.7969 34.5184 87.0379 34.2897 87.4195 34.0052C87.9808 33.5929 89.2655 32.8306 90.4101 32.5638C91.013 32.5638 91.6178 32.7498 92.0566 33.1197C92.7644 33.7358 92.9642 34.5568 92.9642 35.6457V39.4448C92.9642 40.3677 93.3214 40.6789 93.6658 40.6789C93.9094 40.6789 94.1877 40.554 94.3918 40.4281L94.5869 40.966L92.879 42.0125ZM90.2546 37.4172C90.0022 37.5348 89.7681 37.6439 89.6098 37.7212C88.8247 38.0908 88.3839 38.4581 88.3839 39.2204C88.3839 40.2872 89.1866 40.78 89.8092 40.78C90.3289 40.78 91.0305 40.4281 91.4141 40.0404V36.8604C91.152 36.9991 90.6769 37.2204 90.2546 37.4172Z" stroke="#2B2A29" stroke-width="0.0762" stroke-miterlimit="22.9256"/>
<path d="M101.864 33.9778C102.042 34.3298 102.145 34.7829 102.268 35.4193L102.811 35.3609C102.79 34.476 102.768 33.5521 102.768 32.8102H95.096C95.0758 33.5521 95.0342 34.476 94.9335 35.3609L95.4773 35.4193C95.6572 34.7421 95.7758 34.3528 95.958 34.0052C96.1792 33.5725 96.5407 33.467 97.1436 33.467H98.1083V39.7914C98.1083 40.946 98.0076 41.1072 96.6414 41.2348V41.7687H101.158V41.2348C99.799 41.1072 99.6937 40.946 99.6937 39.7914V33.467H100.58C101.283 33.467 101.66 33.6106 101.864 33.9778Z" stroke="#2B2A29" stroke-width="0.0762" stroke-miterlimit="22.9256"/>
<path fill-rule="evenodd" clip-rule="evenodd" d="M111.209 40.0404C109.946 41.6402 108.556 42.0125 107.936 42.0125C105.466 42.0125 104.015 39.9573 104.015 37.6377C104.015 36.244 104.519 34.9682 105.346 34.063C106.166 33.1401 107.254 32.5638 108.278 32.5638H108.298C109.964 32.5638 111.31 34.0834 111.31 35.6654C111.31 36.0757 111.229 36.244 110.849 36.3222C110.532 36.3849 107.997 36.5866 105.585 36.6714C105.605 39.4668 107.194 40.6161 108.598 40.6161C109.424 40.6161 110.168 40.2872 110.908 39.5857L111.209 40.0404ZM107.793 33.3254C106.89 33.3254 105.988 34.1889 105.686 35.8266C106.808 35.8266 107.936 35.8113 109.096 35.7709C109.46 35.7709 109.58 35.6654 109.58 35.3806C109.602 34.3121 108.922 33.3254 107.813 33.3254H107.793Z" stroke="#2B2A29" stroke-width="0.0762" stroke-miterlimit="22.9256"/>
<path fill-rule="evenodd" clip-rule="evenodd" d="M118.042 32.5631C117.799 32.5631 117.421 32.666 117.059 32.8903L115.209 33.9615V32.3611C114.266 32.7291 113.139 33.0803 112.295 33.2219V33.7167C113.541 33.878 113.621 33.9234 113.621 35.2567V44.5397C113.621 45.891 113.444 46.0169 112.155 46.1374V46.6934H116.895V46.1374C115.349 45.9919 115.209 45.891 115.209 44.3334V41.6395C115.47 41.7831 115.996 41.9914 116.602 42.0138C119.208 41.5189 121.6 39.5259 121.6 36.429C121.6 34.434 120.274 32.5631 118.042 32.5631ZM117.101 41.0074C116.398 41.0074 115.65 40.6785 115.209 40.2281V34.6787C115.753 34.2503 116.573 33.7955 117.219 33.7955C118.667 33.7955 119.912 35.0306 119.912 37.2287C119.912 39.5259 118.789 41.0074 117.101 41.0074Z" stroke="#2B2A29" stroke-width="0.0762" stroke-miterlimit="22.9256"/>
<path d="M132.528 33.3027C131.243 33.4302 131.147 33.5738 131.147 34.5578V39.8361C131.147 40.9834 131.221 41.1066 132.506 41.2341V41.768H128.428V41.2341C129.495 41.1066 129.619 40.9657 129.619 39.8538V36.9379C129.619 36.4046 129.619 35.645 129.695 34.1254H129.66L126.021 40.9834C125.9 41.2121 125.84 41.4134 125.84 41.6174V41.768H122.745V41.2341C123.99 41.1066 124.071 40.9229 124.071 39.6898V34.7618C124.071 33.5738 123.99 33.4302 122.745 33.3027V32.8095H126.882V33.3027C125.659 33.4302 125.602 33.5518 125.602 34.7435V37.0831C125.602 37.7853 125.602 38.787 125.52 40.367H125.562L129.274 33.4082C129.399 33.2015 129.434 33.0559 129.434 32.9551V32.8095H132.528V33.3027Z" stroke="#2B2A29" stroke-width="0.0762" stroke-miterlimit="22.9256"/>
<path d="M139.504 41.2348V41.7687H143.562V41.2348C142.378 41.1072 142.278 40.984 142.278 39.6708V34.7224C142.278 33.5521 142.378 33.4289 143.503 33.3261V32.8102H139.462V33.3261C140.631 33.4289 140.69 33.5929 140.69 34.6997V36.5869H136.794V34.7224C136.794 33.5929 136.893 33.4289 137.917 33.3261V32.8102H133.839V33.3261C135.148 33.4289 135.208 33.5725 135.208 34.7224V39.6708C135.208 40.984 135.121 41.1072 133.878 41.2348V41.7687H137.941V41.2348C136.893 41.1072 136.794 41.0061 136.794 39.6708V37.3709H140.69V39.6708C140.69 40.966 140.592 41.1072 139.504 41.2348Z" stroke="#2B2A29" stroke-width="0.0762" stroke-miterlimit="22.9256"/>
<path d="M154.718 33.3027C153.436 33.4302 153.33 33.5738 153.33 34.5578V39.8361C153.33 40.9834 153.411 41.1066 154.699 41.2341V41.768H150.618V41.2341C151.681 41.1066 151.804 40.9657 151.804 39.8538V36.9379C151.804 36.4046 151.804 35.645 151.885 34.1254H151.846L148.206 40.9834C148.086 41.2121 148.026 41.4134 148.026 41.6174V41.768H144.933V41.2341C146.18 41.1066 146.262 40.9229 146.262 39.6898V34.7618C146.262 33.5738 146.18 33.4302 144.933 33.3027V32.8095H149.075V33.3027C147.846 33.4302 147.783 33.5518 147.783 34.7435V37.0831C147.783 37.7853 147.783 38.787 147.706 40.367H147.746L151.463 33.4082C151.578 33.2015 151.622 33.0559 151.622 32.9551V32.8095H154.718V33.3027Z" stroke="#2B2A29" stroke-width="0.0762" stroke-miterlimit="22.9256"/>
<path d="M161.691 41.2348V41.7687H165.745V41.2348C164.563 41.1072 164.462 40.984 164.462 39.6708V34.7224C164.462 33.5521 164.563 33.4289 165.688 33.3261V32.8102H161.652V33.3261C162.811 33.4289 162.873 33.5929 162.873 34.6997V36.5869H158.977V34.7224C158.977 33.5929 159.077 33.4289 160.103 33.3261V32.8102H156.023V33.3261C157.332 33.4289 157.389 33.5725 157.389 34.7224V39.6708C157.389 40.984 157.308 41.1072 156.065 41.2348V41.7687H160.123V41.2348C159.077 41.1072 158.977 41.0061 158.977 39.6708V37.3709H162.873V39.6708C162.873 40.966 162.774 41.1072 161.691 41.2348Z" stroke="#2B2A29" stroke-width="0.0762" stroke-miterlimit="22.9256"/>
<path d="M174.526 39.9206C173.647 41.1059 172.318 42.0138 171.136 42.0138C168.604 42.0138 167.098 39.9356 167.098 37.7375C167.098 36.1552 167.782 34.7835 169.128 33.7364C170.174 32.9144 171.378 32.5625 172.121 32.5625H172.141C172.963 32.5625 173.627 32.8312 173.95 33.1184C174.211 33.3267 174.27 33.5104 174.27 33.7364C174.27 34.1692 173.829 34.6196 173.61 34.6196C173.487 34.6196 173.388 34.5572 173.226 34.3915C172.623 33.8196 171.917 33.5528 171.198 33.5528C169.871 33.5528 168.724 34.6807 168.724 36.8343C168.724 39.6715 170.613 40.6174 171.757 40.6174C172.623 40.6174 173.265 40.3683 174.191 39.4898L174.526 39.9206Z" stroke="#2B2A29" stroke-width="0.0762" stroke-miterlimit="22.9256"/>
<path d="M181.304 40.5964C181.907 41.6408 182.569 41.7687 183.313 41.7687H184.615V41.2348C183.797 41.1677 183.416 40.8251 182.727 39.6912L182.42 39.1597C182.04 38.5011 181.821 38.1214 181.563 37.7389C181.142 37.1245 180.561 36.8176 180.217 36.7121V36.6317C180.598 36.3452 181.065 35.8273 181.424 35.258C181.942 34.476 182.366 33.8997 183.093 33.8997H183.416C183.937 33.8997 184.137 33.6576 184.137 33.2837C184.137 32.891 183.815 32.5865 183.234 32.5865C182.385 32.5865 181.725 33.492 181.344 34.063C181.239 34.2217 181.126 34.3987 181.009 34.5822C180.658 35.1347 180.268 35.7465 179.933 36.0984C179.432 36.5712 178.996 36.6721 178.408 36.6924V34.6393C178.408 33.5725 178.515 33.4513 179.596 33.3261V32.8102H175.619V33.3261C176.783 33.4513 176.862 33.5725 176.862 34.6393V39.8748C176.862 40.9236 176.763 41.1072 175.555 41.2348V41.7687H179.715V41.2348C178.515 41.1072 178.408 40.9236 178.408 39.8748V37.3088C179.274 37.3088 179.715 37.4941 180.098 38.2541C180.379 38.8304 180.804 39.6912 181.304 40.5964Z" stroke="#2B2A29" stroke-width="0.0762" stroke-miterlimit="22.9256"/>
<path fill-rule="evenodd" clip-rule="evenodd" d="M191.854 42.0125C191.552 42.0125 191.133 41.8271 190.913 41.6188C190.65 41.3563 190.53 41.0672 190.429 40.6976C190.302 40.7851 190.171 40.8776 190.038 40.9714C189.328 41.4735 188.565 42.0125 188.059 42.0125C186.631 42.0125 185.646 40.8004 185.646 39.5069C185.646 38.5209 186.169 37.8868 187.272 37.4941C188.477 37.0821 189.944 36.5262 190.389 36.1562V35.8113C190.389 34.3121 189.725 33.492 188.703 33.492C188.322 33.492 188.015 33.6356 187.818 33.8793C187.555 34.1438 187.394 34.5966 187.215 35.2173C187.111 35.5445 186.915 35.6837 186.631 35.6837C186.272 35.6837 185.77 35.2961 185.77 34.8229C185.77 34.5184 186.009 34.2897 186.39 34.0052C186.953 33.5929 188.238 32.8306 189.383 32.5638C189.99 32.5638 190.587 32.7498 191.032 33.1197C191.735 33.7358 191.935 34.5568 191.935 35.6457V39.4448C191.935 40.3677 192.297 40.6789 192.637 40.6789C192.876 40.6789 193.159 40.554 193.356 40.4281L193.562 40.966L191.854 42.0125ZM189.24 37.4105C188.98 37.5307 188.74 37.6424 188.578 37.7212C187.798 38.0908 187.355 38.4581 187.355 39.2204C187.355 40.2872 188.162 40.78 188.782 40.78C189.297 40.78 190.006 40.4281 190.389 40.0404V36.8604C190.13 36.9975 189.66 37.2154 189.24 37.4105Z" stroke="#2B2A29" stroke-width="0.0762" stroke-miterlimit="22.9256"/>
<path fill-rule="evenodd" clip-rule="evenodd" d="M198.924 41.2341V41.7674H203V41.2341C201.818 41.1466 201.698 41.0074 201.698 39.7146V34.8243C201.698 33.5084 201.818 33.4302 202.963 33.3247V32.8095H198.7C196.78 32.8095 195.392 33.5511 195.392 35.1939C195.392 36.429 196.216 37.2287 197.78 37.5158V37.5539C196.679 37.8207 196.193 38.5603 195.813 39.3202C195.735 39.4695 195.664 39.6095 195.598 39.7398C195.356 40.2197 195.178 40.57 194.988 40.7814C194.734 41.1015 194.314 41.1653 193.88 41.2314L193.862 41.2341V41.7674H195.326C196.03 41.7674 196.596 41.4134 197.038 40.4294C197.132 40.2277 197.22 40.0296 197.305 39.8388C197.547 39.2941 197.764 38.8078 198.001 38.4594C198.284 38.0471 198.744 37.8207 199.485 37.8207H200.15V39.6898C200.15 41.0074 200.046 41.1466 198.924 41.2341ZM199.13 33.4526C199.911 33.4526 200.15 33.5738 200.15 34.1067V37.1666H199.547C198.766 37.1666 198.238 37.0654 197.822 36.7542C197.361 36.4494 197.078 35.9943 197.078 35.3215C197.078 34.082 197.863 33.4526 199.13 33.4526Z" stroke="#2B2A29" stroke-width="0.0762" stroke-miterlimit="22.9256"/>
</svg>
