<svg width="26" height="26" viewBox="0 0 26 26" fill="none" xmlns="http://www.w3.org/2000/svg">
<path d="M25.6047 23.6819L19.1952 17.246C20.8432 15.3546 21.7462 12.9749 21.7462 10.4975C21.7462 4.70926 16.8684 0 10.8731 0C4.87776 0 0 4.70926 0 10.4975C0 16.2857 4.87776 20.995 10.8731 20.995C13.1238 20.995 15.2686 20.3396 17.1024 19.0954L23.5605 25.5801C23.8305 25.8508 24.1935 26 24.5826 26C24.9509 26 25.3002 25.8644 25.5655 25.618C26.129 25.0945 26.1469 24.2264 25.6047 23.6819ZM10.8731 2.73848C15.3046 2.73848 18.9097 6.21908 18.9097 10.4975C18.9097 14.7759 15.3046 18.2565 10.8731 18.2565C6.44159 18.2565 2.83646 14.7759 2.83646 10.4975C2.83646 6.21908 6.44159 2.73848 10.8731 2.73848Z" fill="#0B1F35"/>
</svg>
